<?xml version="1.0" standalone="no"?>
<!DOCTYPE svg PUBLIC "-//W3C//DTD SVG 20010904//EN"
 "http://www.w3.org/TR/2001/REC-SVG-20010904/DTD/svg10.dtd">
<svg version="1.0" xmlns="http://www.w3.org/2000/svg"
 width="260.000000pt" height="260.000000pt" viewBox="0 0 260.000000 260.000000"
 preserveAspectRatio="xMidYMid meet">
<metadata>
Created by potrace 1.11, written by Peter Selinger 2001-2013
</metadata>
<g transform="translate(0.000000,260.000000) scale(0.100000,-0.100000)"
fill="#000000" stroke="none">
<path d="M1426 2344 c-14 -14 -16 -69 -16 -455 0 -438 2 -470 34 -491 6 -4
210 -8 453 -8 388 0 443 2 457 16 14 14 16 69 16 455 0 438 -2 470 -34 491 -6
4 -210 8 -453 8 -388 0 -443 -2 -457 -16z"/>
<path d="M1190 1840 c0 -397 -1 -410 -20 -420 -13 -7 -168 -10 -470 -8 -423 3
-450 2 -450 -14 0 -10 9 -27 20 -38 19 -19 33 -20 455 -20 422 0 436 1 455 20
19 19 20 33 20 455 0 239 -2 435 -5 435 -3 0 -5 -184 -5 -410z"/>
<path d="M1190 670 c0 -397 -1 -410 -20 -420 -13 -7 -168 -10 -470 -8 -423 3
-450 2 -450 -15 0 -9 9 -26 20 -37 19 -19 33 -20 455 -20 422 0 436 1 455 20
19 19 20 33 20 455 0 239 -2 435 -5 435 -3 0 -5 -184 -5 -410z"/>
<path d="M2360 670 c0 -397 -1 -410 -20 -420 -13 -7 -168 -10 -470 -8 -423 3
-450 2 -450 -15 0 -9 9 -26 20 -37 19 -19 33 -20 455 -20 422 0 436 1 455 20
19 19 20 33 20 455 0 239 -2 435 -5 435 -3 0 -5 -184 -5 -410z"/>
</g>
</svg>
